<svg width="171" height="38" viewBox="0 0 171 38" fill="none" xmlns="http://www.w3.org/2000/svg">
<g filter="url(#filter0_d_3_477)">
<path fill-rule="evenodd" clip-rule="evenodd" d="M110.11 9.8752C109.226 9.3184 108.168 9.04 106.938 9.04C105.611 9.04 104.424 9.3712 103.376 10.0336C102.328 10.696 101.502 11.6464 100.896 12.8848C100.29 14.1232 99.9876 15.5872 99.9876 17.2768C99.9876 18.9472 100.29 20.4064 100.896 21.6544C101.502 22.9024 102.328 23.8576 103.376 24.52C104.424 25.1824 105.611 25.5136 106.938 25.5136C108.168 25.5136 109.226 25.2352 110.11 24.6784C110.994 24.1216 111.638 23.3632 112.042 22.4032V25.312H116.974V4H112.042V12.1504C111.638 11.1904 110.994 10.432 110.11 9.8752ZM56.9314 25.312V18.1696H59.9883C61.5841 18.1696 62.9395 17.8864 64.0546 17.32C65.1697 16.7536 66.0108 15.976 66.578 14.9872C67.1451 13.9984 67.4287 12.8704 67.4287 11.6032C67.4287 9.56799 66.7943 7.95041 65.5254 6.7504C64.2564 5.55039 62.4108 4.9504 59.9883 4.9504H52V25.312H56.9314ZM62.4108 11.6032C62.4108 13.3504 61.4207 14.224 59.4404 14.224H56.9314V8.9248H59.4404C61.4207 8.9248 62.4108 9.81759 62.4108 11.6032ZM74.7826 12.2656C75.3978 11.2864 76.1909 10.5088 77.1618 9.9328C78.1327 9.3568 79.1853 9.0688 80.3196 9.0688V14.3392H78.9065C77.5992 14.3392 76.585 14.6176 75.864 15.1744C75.1431 15.7312 74.7826 16.672 74.7826 17.9968V25.312H69.8512V9.2416H74.7826V12.2656ZM94.2055 10.0336C92.9462 9.3712 91.5187 9.04 89.9229 9.04C88.3272 9.04 86.8948 9.3712 85.6259 10.0336C84.357 10.696 83.3621 11.6512 82.6411 12.8992C81.9202 14.1472 81.5597 15.6064 81.5597 17.2768C81.5597 18.9472 81.9202 20.4064 82.6411 21.6544C83.3621 22.9024 84.357 23.8576 85.6259 24.52C86.8948 25.1824 88.3272 25.5136 89.9229 25.5136C91.5187 25.5136 92.9462 25.1824 94.2055 24.52C95.4647 23.8576 96.4549 22.9024 97.1758 21.6544C97.8968 20.4064 98.2573 18.9472 98.2573 17.2768C98.2573 15.6064 97.8968 14.1472 97.1758 12.8992C96.4549 11.6512 95.4647 10.696 94.2055 10.0336ZM89.9229 13.3024C88.9808 13.3024 88.1878 13.6432 87.5437 14.3248C86.8996 15.0064 86.5776 15.9904 86.5776 17.2768C86.5776 18.5632 86.8996 19.5424 87.5437 20.2144C88.1878 20.8864 88.9808 21.2224 89.9229 21.2224C90.865 21.2224 91.6532 20.8864 92.2877 20.2144C92.9221 19.5424 93.2394 18.5632 93.2394 17.2768C93.2394 15.9904 92.9221 15.0064 92.2877 14.3248C91.6532 13.6432 90.865 13.3024 89.9229 13.3024ZM108.524 13.36C107.466 13.36 106.616 13.7056 105.972 14.3968C105.328 15.088 105.006 16.048 105.006 17.2768C105.006 18.5056 105.328 19.4656 105.972 20.1568C106.616 20.848 107.466 21.1936 108.524 21.1936C109.562 21.1936 110.413 20.8384 111.076 20.128C111.739 19.4176 112.071 18.4672 112.071 17.2768C112.071 16.0672 111.739 15.112 111.076 14.4112C110.413 13.7104 109.562 13.36 108.524 13.36ZM131.422 25.312H136.382V9.2416H131.422V17.7664C131.422 18.9376 131.133 19.84 130.557 20.4736C129.98 21.1072 129.192 21.424 128.192 21.424C127.231 21.424 126.466 21.1216 125.899 20.5168C125.332 19.912 125.048 19.0624 125.048 17.968V9.2416H120.146V18.5728C120.146 20.7232 120.689 22.4128 121.775 23.6416C122.862 24.8704 124.327 25.4848 126.173 25.4848C127.384 25.4848 128.447 25.2064 129.36 24.6496C130.273 24.0928 130.96 23.344 131.422 22.4032V25.312ZM147.052 9.04C149.129 9.04 150.869 9.61119 152.272 10.7536C153.676 11.896 154.56 13.4656 154.925 15.4624H149.706C149.552 14.7712 149.235 14.2336 148.754 13.8496C148.273 13.4656 147.668 13.2736 146.937 13.2736C146.072 13.2736 145.361 13.6144 144.803 14.296C144.245 14.9776 143.967 15.9712 143.967 17.2768C143.967 18.5824 144.245 19.576 144.803 20.2576C145.361 20.9392 146.072 21.28 146.937 21.28C147.668 21.28 148.273 21.088 148.754 20.704C149.235 20.32 149.552 19.7824 149.706 19.0912H154.925C154.56 21.088 153.676 22.6576 152.272 23.8C150.869 24.9424 149.129 25.5136 147.052 25.5136C145.476 25.5136 144.077 25.1824 142.856 24.52C141.636 23.8576 140.679 22.9024 139.987 21.6544C139.295 20.4064 138.949 18.9472 138.949 17.2768C138.949 15.5872 139.29 14.1232 139.972 12.8848C140.655 11.6464 141.611 10.696 142.842 10.0336C144.072 9.3712 145.476 9.04 147.052 9.04ZM166.605 25.312V21.0784H165.048C164.433 21.0784 163.995 20.9536 163.736 20.704C163.476 20.4544 163.346 20.0128 163.346 19.3792V13.3888H166.576V9.2416H163.346V5.296H158.415V9.2416H156.252V13.3888H158.415V19.2928C158.415 21.4432 158.939 22.984 159.987 23.9152C161.034 24.8464 162.5 25.312 164.384 25.312H166.605Z" fill="#173A56"/>
<path fill-rule="evenodd" clip-rule="evenodd" d="M6.50646 27.5668C5.12791 27.5668 4 26.4389 4 25.0603L4 16.2974L10.309 16.2974L10.309 16.2877L14.101 16.2877C15.0785 16.2627 15.9057 15.4105 15.9057 14.4079C15.9057 13.3802 15.0535 12.5281 14.0258 12.5281L9.01292 12.5281L9.01292 12.5295L4 12.5295L4 10.0216C4 8.64304 5.12791 7.51514 6.50646 7.51514L14.0258 7.51514C15.9307 7.51514 17.5599 8.19188 18.8884 9.54537C20.2418 10.8738 20.9186 12.503 20.9186 14.4079C20.9186 16.2877 20.2669 17.9169 18.9385 19.2454C17.6101 20.5738 16.0059 21.2756 14.1261 21.3007L9.01292 21.3007L9.01292 25.0603C9.01292 26.4389 7.88501 27.5668 6.50646 27.5668Z" fill="#02BC6B"/>
<path fill-rule="evenodd" clip-rule="evenodd" d="M24.0779 4.60645C26.8471 7.29616 28.2425 10.646 28.2425 14.454C28.2425 18.198 26.9055 21.5448 24.1791 24.2429L20.3081 20.6008C22.0037 18.9228 22.836 16.9026 22.836 14.454C22.836 11.9868 21.9787 9.96969 20.2424 8.28327L24.0779 4.60645Z" fill="#02897A"/>
<path fill-rule="evenodd" clip-rule="evenodd" d="M30.0044 -2.51649e-08C33.9929 3.98225 36 8.91996 36 14.587C36 20.1656 34.0738 25.1003 30.1508 29.091L26.415 25.4408C29.3372 22.468 30.7691 18.8625 30.7691 14.587C30.7691 10.2687 29.2889 6.66621 26.303 3.68493L30.0044 -2.51649e-08Z" fill="#035B81"/>
<path fill-rule="evenodd" clip-rule="evenodd" d="M4 21.3218L9.01292 21.3218L9.01292 25.0606C9.01292 26.4392 7.88501 27.5671 6.50646 27.5671C5.12791 27.5671 4 26.4392 4 25.0606L4 21.3218Z" fill="#028E37"/>
</g>
<defs>
<filter id="filter0_d_3_477" x="0" y="0" width="170.605" height="37.0908" filterUnits="userSpaceOnUse" color-interpolation-filters="sRGB">
<feFlood flood-opacity="0" result="BackgroundImageFix"/>
<feColorMatrix in="SourceAlpha" type="matrix" values="0 0 0 0 0 0 0 0 0 0 0 0 0 0 0 0 0 0 127 0" result="hardAlpha"/>
<feOffset dy="4"/>
<feGaussianBlur stdDeviation="2"/>
<feComposite in2="hardAlpha" operator="out"/>
<feColorMatrix type="matrix" values="0 0 0 0 0 0 0 0 0 0 0 0 0 0 0 0 0 0 0.25 0"/>
<feBlend mode="normal" in2="BackgroundImageFix" result="effect1_dropShadow_3_477"/>
<feBlend mode="normal" in="SourceGraphic" in2="effect1_dropShadow_3_477" result="shape"/>
</filter>
</defs>
</svg>
